<svg width="48" height="48" viewBox="0 0 48 48" fill="none" xmlns="http://www.w3.org/2000/svg">
<rect width="48" height="48" rx="24" fill="white"/>
<g clip-path="url(#clip0_4_148)">
<path d="M15.418 17.9357C15.418 17.4024 15.6103 16.9624 15.9949 16.6157C16.3796 16.269 16.8796 16.0957 17.4951 16.0957C18.0995 16.0957 18.5886 16.2664 18.9622 16.6077C19.3469 16.9597 19.5392 17.4184 19.5392 17.9837C19.5392 18.4957 19.3524 18.9224 18.9787 19.2637C18.594 19.6157 18.0885 19.7917 17.4621 19.7917H17.4456C16.8412 19.7917 16.3521 19.6157 15.9785 19.2637C15.6048 18.9117 15.418 18.469 15.418 17.9357ZM15.6323 31.9357V21.2477H19.2919V31.9357H15.6323ZM21.3195 31.9357H24.9792V25.9677C24.9792 25.5944 25.0231 25.3064 25.1111 25.1037C25.2649 24.741 25.4985 24.4344 25.8117 24.1837C26.1249 23.933 26.5178 23.8077 26.9903 23.8077C28.2212 23.8077 28.8366 24.613 28.8366 26.2237V31.9357H32.4963V25.8077C32.4963 24.229 32.1116 23.0317 31.3423 22.2157C30.573 21.3997 29.5565 20.9917 28.2926 20.9917C26.8749 20.9917 25.7705 21.5837 24.9792 22.7677V22.7997H24.9627L24.9792 22.7677V21.2477H21.3195C21.3415 21.589 21.3525 22.6504 21.3525 24.4317C21.3525 26.213 21.3415 28.7144 21.3195 31.9357Z" fill="black"/>
</g>
<defs>
<clipPath id="clip0_4_148">
<rect width="17" height="16" fill="white" transform="translate(15.5 16)"/>
</clipPath>
</defs>
</svg>
