<svg width="191" height="49" viewBox="0 0 191 49" fill="none" xmlns="http://www.w3.org/2000/svg">
<path d="M47.0706 24.036C47.0706 11.3144 36.7577 1.0015 24.036 1.0015C11.3144 1.0015 1.0015 11.3144 1.0015 24.036C1.0015 36.7577 11.3144 47.0706 24.036 47.0706V48.0721C10.7613 48.0721 0 37.3108 0 24.036C0 10.7613 10.7613 0 24.036 0C37.3108 0 48.0721 10.7613 48.0721 24.036C48.0721 37.3108 37.3108 48.0721 24.036 48.0721V47.0706C36.7577 47.0706 47.0706 36.7577 47.0706 24.036Z" fill="#E5E5E5"/>
<path d="M30.4061 28.6713C30.6164 29.7941 30.8267 30.917 31.0465 32.0489H26.6119L24.0792 24.026L21.5465 32.0489H17.112L12.0179 17.0264H17.0929L19.377 25.0764L21.8524 17.0264H26.287L28.7623 25.0764C28.7623 25.6107 28.7432 26.1449 28.7336 26.6792C29.2879 27.3402 29.8518 28.0103 30.4061 28.6713Z" fill="white"/>
<path d="M34.0511 22.7575L31.0406 32.0482H26.5398L25.0376 27.0407C25.6089 25.5474 26.7242 23.446 28.157 22.7307L28.8733 25.1629L29.6804 22.1852C30.1247 22.0869 30.5872 22.0332 31.0678 22.0332C32.1468 22.0332 33.1625 22.2925 34.0511 22.7575Z" fill="white"/>
<path d="M36.0536 17.0348L34.6586 21.0239C34.5662 21.0239 34.4646 21.0324 34.3722 21.0324C32.5336 21.0324 31.0461 19.6717 31.0461 17.9898C31.0461 17.6518 31.1108 17.3306 31.2217 17.0264H36.0536V17.0348Z" fill="white"/>
<path d="M179.816 19.0283L183.085 31.6552H183.597L186.866 19.0283H191.001L185.873 35.6613C184.463 40.2121 180.521 41.3017 176.451 40.9812V37.4239H181.29L175.617 19.0283H179.816Z" fill="white"/>
<path d="M174.68 12.6191V35.0528H170.706V12.6191H174.68Z" fill="white"/>
<path d="M169.764 35.0528H165.341L159.22 27.4254H158.675V35.0528H154.701V12.6192H158.675V24.7013L164.251 19.0288H169.187L162.457 25.7589L169.764 35.0528Z" fill="white"/>
<path d="M152.733 22.5216C151.547 22.5216 150.714 22.8741 150.169 23.4189C149.528 24.0599 149.271 24.9572 149.271 25.7584L149.239 35.0523H145.394V19.0283H148.759V21.2717H149.271C149.624 20.6307 150.361 19.0283 153.406 19.0283H153.566V22.5216H152.733Z" fill="white"/>
<path d="M136.061 35.3402C131.318 35.3402 128.466 31.8149 128.466 26.9436C128.466 22.1044 131.318 18.5791 136.061 18.5791C140.772 18.5791 143.625 22.1044 143.625 26.9436C143.625 31.8149 140.772 35.3402 136.061 35.3402ZM136.061 31.6868C138.497 31.6868 139.811 29.6677 139.811 26.9436C139.811 24.2516 138.497 22.2326 136.061 22.2326C133.594 22.2326 132.28 24.2516 132.28 26.9436C132.28 29.6677 133.594 31.6868 136.061 31.6868Z" fill="white"/>
<path d="M129.265 19.0283L125.003 35.0523H119.523L117.375 26.1109H116.863L114.748 35.0523H109.267L104.973 19.0283H109.107L111.927 31.4309H112.44L114.908 19.0283H119.362L121.862 31.4309H122.375L125.163 19.0283H129.265Z" fill="white"/>
<path d="M87.8369 28.0015C87.8369 29.4437 88.8304 31.687 91.4263 31.687C93.6696 31.687 94.6952 30.1808 94.6952 29.4116H98.7973C98.7973 32.36 96.1053 35.3405 91.6506 35.3405C86.555 35.3405 83.7988 31.8793 83.7988 26.8157C83.7988 22.9379 85.9781 18.4512 91.4904 18.4512C98.3166 18.4512 98.8935 24.989 98.8935 27.9694L87.8369 28.0015ZM94.7913 25.2133C94.7913 24.2839 93.9581 22.1367 91.4263 22.1367C88.8304 22.1367 87.8689 24.2839 87.8689 25.2133H94.7913Z" fill="white"/>
<path d="M68.6536 35.0528V12.6192H72.4993L72.5314 21.5927H73.0441C73.4608 20.6312 74.1658 18.7083 76.8258 18.7083C80.5113 18.7083 82.8188 20.5992 82.8188 25.0218L82.8508 35.0528H79.0371L79.0692 25.6628C79.0692 24.2206 78.5564 22.3298 76.1528 22.3298C73.5249 22.3298 72.5314 24.1244 72.5314 25.5666L72.4993 35.0528H68.6536Z" fill="white"/>
<path d="M63.9042 22.2652V29.3478C63.9042 30.5015 64.5451 31.4309 65.5386 31.4309H67.0769V35.0524H65.5386C61.4685 35.0524 59.9943 33.0013 59.9943 29.444V22.2652H57.0459V19.0283H59.9943V14.8621H63.9042V19.0283H67.0769V22.2652H63.9042Z" fill="white"/>
</svg>
